<svg xmlns="http://www.w3.org/2000/svg" width="137" height="138" fill="none"><path fill="#EDF5FF" d="M65.67 43.37c.087 3.07-.828 5.87-2.113 8.604-1.013 2.156-2.048 4.323-2.82 6.567-1.188 3.398-.665 6.828.326 10.194.425 1.448.871 2.886 1.263 4.345 1.285 4.727.632 9.29-1.503 13.603-1.95 3.942-6.022 5.903-9.856 4.966-2.407-.588-4.008-2.232-5.282-4.236-2.342-3.67-3.42-7.787-4.128-12.013-1.122-6.676-2.2-13.352-3.224-20.04-1.154-7.569-1.296-15.105 1.449-22.424 1.22-3.235 2.875-6.208 5.435-8.593 5.162-4.824 11.936-4.138 15.998 1.645 2.407 3.43 3.398 7.384 3.943 11.457.261 1.971.36 3.953.534 5.935zM99.655 70.957c-.032 5.435-.947 10.76-1.851 16.097-.948 5.576-1.83 11.174-2.919 16.729-.642 3.256-1.884 6.327-3.8 9.094-4.118 5.946-11.197 4.084-14.061-.316-1.656-2.538-2.309-5.369-2.647-8.321-.326-2.799.164-5.478.98-8.146.665-2.135 1.264-4.313 1.623-6.513.523-3.246-.196-6.36-1.59-9.323-.468-1.002-.925-2.004-1.448-2.973-1.732-3.224-2.483-6.622-2.276-10.303.25-4.4.73-8.734 2.526-12.797.708-1.6 1.612-3.158 2.712-4.509 3.55-4.356 9.268-4.988 13.81-1.655 3.093 2.276 5.02 5.424 6.436 8.92 1.83 4.498 2.549 9.192 2.516 14.016z"/><path fill="#EDF5FF" d="M119.951 137.182H17.273c-9.36 0-16.961-7.614-16.961-16.962V17.531C.312 8.183 7.925.57 17.273.57h102.678c9.359 0 16.962 7.613 16.962 16.961V120.21c0 9.359-7.614 16.962-16.962 16.962zM17.273 4.566c-7.154 0-12.965 5.81-12.965 12.965V120.21c0 7.154 5.822 12.977 12.977 12.977H119.95c7.154 0 12.977-5.823 12.977-12.977V17.531c0-7.154-5.823-12.976-12.977-12.976H17.273z"/></svg>