<svg xmlns="http://www.w3.org/2000/svg" width="500" height="500" fill="none"><rect width="500" height="500" fill="#1D54C0" rx="83"/><path fill="#A0C3EA" d="M246.307 421.853a2.81 2.81 0 0 1-2.813 2.776h-6.778a2.81 2.81 0 0 1-2.813-2.776V205.47h-84.119a2.815 2.815 0 0 1-2.813-2.81v-6.773a2.81 2.81 0 0 1 2.813-2.81h96.523zm0-247.231v11.039h-63.411a2.815 2.815 0 0 1-2.813-2.811v-6.772a2.814 2.814 0 0 1 2.813-2.811h50.837v-62.002a2.807 2.807 0 0 1 2.813-2.811h6.779a2.815 2.815 0 0 1 2.813 2.811zm73.612 28.038a2.81 2.81 0 0 1-2.813 2.81h-50.837v183.265a2.82 2.82 0 0 1-.824 1.987 2.8 2.8 0 0 1-.912.61 2.8 2.8 0 0 1-1.077.213h-6.778c-.369 0-.735-.072-1.077-.213a2.83 2.83 0 0 1-1.522-1.521 2.8 2.8 0 0 1-.214-1.076V193.043h63.241a2.81 2.81 0 0 1 2.813 2.811zm33.112-19.945a2.81 2.81 0 0 1-2.813 2.81h-96.489V78.181a2.81 2.81 0 0 1 2.813-2.81h6.779a2.81 2.81 0 0 1 2.813 2.81v95.052h84.084a2.82 2.82 0 0 1 1.99.824 2.8 2.8 0 0 1 .823 1.987z"/></svg>