<svg xmlns="http://www.w3.org/2000/svg" width="60" height="59" fill="none"><circle cx="29.685" cy="29.612" r="29.358" fill="#25D366"/><path fill="#fff" d="M41.07 18.082c3.065 3.065 4.962 7.08 4.962 11.458 0 8.903-7.443 16.201-16.42 16.201-2.7 0-5.327-.73-7.736-1.97l-8.538 2.19 2.262-8.393a16.2 16.2 0 0 1-2.19-8.101c0-8.903 7.299-16.201 16.202-16.201 4.379 0 8.466 1.751 11.458 4.816M29.612 42.968c7.444 0 13.647-6.057 13.647-13.428 0-3.65-1.532-7.006-4.087-9.56s-5.91-3.941-9.487-3.941c-7.444 0-13.5 6.057-13.5 13.428 0 2.554.729 5.035 2.043 7.225l.364.51-1.386 4.963 5.108-1.386.438.291c2.117 1.241 4.452 1.898 6.86 1.898m7.444-10.071c.365.219.657.292.73.51.146.147.146.95-.22 1.898-.364.949-1.97 1.825-2.7 1.898-1.313.219-2.335.146-4.889-1.022-4.087-1.752-6.714-5.838-6.933-6.057-.219-.292-1.605-2.19-1.605-4.233 0-1.97 1.021-2.92 1.386-3.357s.803-.51 1.095-.51h.73c.292 0 .583-.074.948.729.292.803 1.168 2.773 1.24 2.992.074.219.147.438 0 .73-.729 1.532-1.605 1.46-1.167 2.19 1.606 2.7 3.138 3.648 5.547 4.816.365.219.584.146.875-.073.22-.292 1.022-1.24 1.241-1.606.292-.438.584-.365.949-.219s2.335 1.095 2.773 1.314"/></svg>